<?xml version="1.0" standalone="no"?>
<!DOCTYPE svg PUBLIC "-//W3C//DTD SVG 20010904//EN"
 "http://www.w3.org/TR/2001/REC-SVG-20010904/DTD/svg10.dtd">
<svg version="1.0" xmlns="http://www.w3.org/2000/svg"
 width="100.000000pt" height="100.000000pt" viewBox="0 0 100.000000 100.000000"
 preserveAspectRatio="xMidYMid meet">
<metadata>
Created by potrace 1.14, written by Peter Selinger 2001-2017
</metadata>
<g transform="translate(0.000000,100.000000) scale(0.100000,-0.100000)"
fill="#000000" stroke="none">
<path d="M20 733 c0 -130 2 -234 5 -231 3 3 31 39 63 82 l57 76 -1 99 -1 100
226 0 c124 0 238 0 252 1 20 0 37 13 68 55 l42 55 -356 0 -355 0 0 -237z"/>
<path d="M559 785 c0 -42 0 -347 0 -420 l1 -59 80 81 80 81 -2 173 -3 173 -77
1 -78 1 -1 -31z"/>
<path d="M357 658 c-9 -4 -12 -51 -11 -157 1 -84 3 -153 5 -155 31 -24 149
-93 152 -88 2 4 4 96 4 205 0 174 -2 197 -16 198 -63 4 -124 3 -134 -3z"/>
<path d="M950 551 c-8 -4 -44 -16 -80 -26 -78 -22 -87 -29 -70 -50 15 -18 24
-8 -168 -201 -73 -74 -136 -134 -140 -134 -4 0 -47 36 -97 80 -49 44 -92 80
-95 80 -5 -1 -144 -181 -183 -238 -11 -15 27 21 83 80 l103 107 96 -101 97
-101 84 72 c91 78 149 128 245 209 l60 51 21 -20 21 -20 23 93 c12 51 23 98
25 105 5 16 -7 23 -25 14z"/>
<path d="M128 448 c-1 -35 -1 -102 2 -150 l5 -87 75 95 c72 91 75 97 76 150
l1 54 -78 0 -77 0 -4 -62z"/>
</g>
</svg>
